<svg data-name="Capa 2" viewBox="0 0 170.43 42.1" xmlns="http://www.w3.org/2000/svg"><defs><style>.cls-3{fill:#00a443}</style></defs><g data-name="Capa 1"><path class="cls-3" d="M54.2 9.9h3.3v22.3h-3.3zm18.6 6.9c-1.1-.7-2.4-1.1-3.8-1.1-1.2 0-2.2.2-3.1.7-.8.5-1.6 1.2-2.1 2-.1.2-.2.3-.3.5v-9h-3.1v22.3h3.1v-2.9c.1.2.2.3.3.5.5.8 1.2 1.5 2.1 2 .9.5 1.9.7 3.1.7 1 0 2-.2 2.9-.6.9-.4 1.7-1 2.3-1.7.7-.8 1.2-1.7 1.6-2.7.4-1.1.6-2.2.6-3.4 0-1.7-.3-3.1-1-4.4-.5-1.1-1.5-2.1-2.6-2.9Zm.1 9.7c-.2.7-.6 1.3-1 1.8s-1 .9-1.5 1.1c-.6.3-1.3.4-2 .4-1.4 0-2.6-.5-3.5-1.5s-1.4-2.4-1.4-4.1c0-.8.1-1.6.4-2.4.2-.6.6-1.2 1-1.8.4-.5 1-.9 1.5-1.1.6-.2 1.3-.4 1.9-.4 1.4 0 2.6.5 3.5 1.5s1.4 2.4 1.4 4.1c.1.9-.1 1.7-.3 2.4Zm16.6-9.7c-1.2-.7-2.5-1.1-3.9-1-1.1 0-2.1.2-3.1.6-.9.4-1.8 1-2.5 1.7-.7.8-1.3 1.7-1.6 2.7-.4 1.1-.6 2.3-.6 3.5 0 1.7.3 3.2 1 4.4.6 1.2 1.6 2.3 2.8 3 1.2.7 2.7 1.1 4.1 1.1.9 0 1.8-.1 2.7-.4.9-.3 1.7-.7 2.4-1.3.8-.7 1.4-1.5 1.9-2.3l-2.4-1.5c-.3.6-.7 1.2-1.2 1.6s-1 .7-1.6.9c-.6.2-1.2.3-1.9.3-.9 0-1.7-.2-2.5-.6-.7-.5-1.3-1.1-1.7-1.9-.2-1-.4-1.9-.4-2.7h12.1v-.8c0-1.7-.3-3.1-1-4.4-.6-1.2-1.5-2.2-2.6-2.9Zm-7.3 3.1c.4-.5.9-.9 1.5-1.1.6-.3 1.3-.4 1.9-.4 1.2 0 2.4.5 3.1 1.4.6.7 1 1.6 1.1 2.8h-8.7c0-.3.1-.6.2-.9.2-.7.5-1.3.9-1.8Zm21.4-4.2h-.9c-.9 0-1.8.2-2.6.7-.8.5-1.4 1.2-1.8 2.2v-2.7h-3.1v16.2h3.1v-8.5c0-1.4.4-2.5 1.1-3.3s1.6-1.3 2.7-1.2h1.6v-3.4h-.1Zm12.8 3.3c-.1-.2-.2-.3-.3-.5-.5-.8-1.3-1.5-2.1-2s-1.9-.8-3.1-.7c-1 0-2 .2-3 .6-.9.4-1.7 1-2.4 1.7-.7.8-1.2 1.7-1.6 2.7-.4 1.1-.6 2.3-.6 3.4 0 1.7.3 3.1 1 4.4.6 1.2 1.5 2.2 2.7 3 1.1.7 2.5 1.1 3.8 1.1 1.2 0 2.2-.2 3.1-.7.8-.5 1.6-1.2 2.1-2 .1-.2.2-.3.3-.5v2.9h3.1V9.9h-3.1V19h.1Zm-1.2 9.3c-.4.5-1 .9-1.6 1.1-.6.3-1.3.4-2 .4-1.4 0-2.6-.5-3.5-1.5s-1.4-2.4-1.4-4.1c0-.8.1-1.6.4-2.4.2-.6.6-1.2 1-1.8.4-.5 1-.9 1.5-1.1.6-.3 1.3-.4 2-.4 1.4 0 2.6.5 3.5 1.5s1.4 2.4 1.4 4.1c0 .8-.1 1.6-.4 2.3-.2.8-.5 1.4-.9 1.9ZM131 15.7h-1c-.9 0-1.8.2-2.6.7s-1.4 1.2-1.8 2.2v-2.7h-3.1v16.2h3.1v-8.5c0-1.4.4-2.5 1.1-3.3s1.6-1.3 2.7-1.2h1.6v-3.4zm12.4 1.1c-1.3-.7-2.8-1.1-4.2-1.1-1.1 0-2.2.2-3.3.6-1 .4-1.9 1-2.6 1.7-.8.8-1.3 1.7-1.7 2.7-.4 1.1-.6 2.2-.6 3.4 0 1.7.4 3.1 1.1 4.4.7 1.2 1.7 2.3 2.9 3 1.3.7 2.7 1.1 4.2 1.1 1.1 0 2.2-.2 3.3-.6 1-.4 1.9-1 2.6-1.7.8-.8 1.3-1.7 1.7-2.7.4-1.1.6-2.3.6-3.4 0-1.7-.4-3.2-1.1-4.4-.6-1.3-1.7-2.3-2.9-3Zm.4 9.7c-.2.7-.6 1.3-1.1 1.8-.4.5-1 .9-1.6 1.1-.6.3-1.3.4-2 .4-.9 0-1.8-.2-2.5-.7-.8-.5-1.4-1.1-1.8-1.9-.4-.8-.7-1.8-.7-3 0-.8.1-1.6.4-2.4.2-.6.6-1.2 1-1.8.4-.5 1-.9 1.6-1.1s1.3-.4 2-.4c.9 0 1.8.2 2.6.7s1.4 1.1 1.8 1.9c.4.8.7 1.8.7 3 0 .9-.1 1.7-.4 2.4Zm8.9 2.5c-.3-.3-.4-.8-.4-1.4V9.9h-3.1v17.9c0 .8.1 1.6.5 2.3.3.7.8 1.2 1.5 1.6.7.4 1.6.6 2.4.6h1.8v-2.7h-1.3c-.6-.1-1.1-.2-1.4-.6Zm17.1-9.7c-.4-.8-.9-1.5-1.6-2-.7-.5-1.5-.9-2.3-1.1-.9-.2-1.8-.4-2.7-.4-1.4 0-2.7.3-4 1-1.2.7-2.1 1.7-2.6 3l2.5 1.4c.3-.8.8-1.4 1.5-1.9.7-.4 1.5-.7 2.5-.7.7 0 1.4.1 2.1.4.6.2 1.2.7 1.5 1.2.4.6.6 1.3.6 2.3v1.8c-.1-.1-.2-.2-.4-.3-1-.9-2.4-1.3-4.3-1.3-1.1 0-2.3.2-3.3.6-.9.3-1.7.9-2.4 1.7-1.1 1.6-1.2 3.8 0 5.4.6.8 1.4 1.4 2.3 1.7 1 .4 2.1.6 3.2.6 1.9 0 3.4-.5 4.4-1.4l.6-.6v1.6h3V22.2c.1-1-.1-2-.6-2.9Zm-3.5 10.2c-.8.4-1.7.7-2.9.7s-2.1-.2-2.9-.7c-.8-.4-1.2-1.1-1.2-1.9s.4-1.6 1.2-2 1.7-.7 2.9-.7c1.1 0 2.1.2 2.9.7.7.4 1.2 1.2 1.1 2 0 .8-.4 1.5-1.1 1.9Z"/><path d="M24.7 24.3c0 2.6 1 5 2.8 6.9 3.5 3.5 8.2 3.5 11.2 1.8 3.7-2 12-8 3.4-33 .1 11.8-17.4 13-17.4 24.3Z" style="fill:#ff9c1a"/><path d="M32.7 10.4c-.6-3.1-1.5-6.2-2.9-10.3 0 11.8-17.4 13-17.4 24.3 0 2.6 1 5 2.8 6.9 3.5 3.5 8.3 3.5 11.2 1.8-6.9-7.5-4.5-16 6.3-22.7Z" style="fill:#0da9ff"/><path class="cls-3" d="M20.3 10.4c-.6-3.1-1.5-6.2-2.9-10.3C17.4 11.8 0 13 0 24.3c0 5.8 4.7 8.3 4.7 8.3-.7 3.1-.9 6.3-.4 9.5l2.2-.4c-1.1-3.8-.4-8-.4-8.4 2.9 1.1 5.8.8 7.9-.4-6.9-7.3-4.4-15.8 6.3-22.5Z"/></g></svg>